# xmcd CD database file
#
# Track frame offsets:
#	150
#	22234
#	50289
#	69900
#	90787
#	108074
#	130396
#	146183
#	163904
#	183805
#
# Disc length: 2664 seconds
#
# Revision: 0
# Processed by: cddbd v1.5.1PL2 Copyright (c) Steve Scherf et al.
# Submitted via: CDex 1.51
#
DISCID=800a660a
DTITLE=AURVEDA PROJECT - Soul and Spirit
DYEAR=1900
DGENRE=New Age
TTITLE0=Heart of ocean
TTITLE1=Forest Morning
TTITLE2=Soul of Spirit
TTITLE3=Ambient Reality
TTITLE4=Lullaby
TTITLE5=Fog of the night river
TTITLE6=Animal Jazz
TTITLE7=Memoirs
TTITLE8=Tribal Jungle
TTITLE9=Kiss of Fortune
EXTD=
EXTT0=
EXTT1=
EXTT2=
EXTT3=
EXTT4=
EXTT5=
EXTT6=
EXTT7=
EXTT8=
EXTT9=
PLAYORDER=
